<mxfile host="app.diagrams.net" modified="2023-06-12T06:23:47.203Z" agent="Mozilla/5.0 (Windows NT 10.0; Win64; x64) AppleWebKit/537.36 (KHTML, like Gecko) Chrome/114.0.0.0 Safari/537.36" etag="Z69dNdHcbCoG6_HVK0mU" version="21.3.7" type="device">
  <diagram name="Page-1" id="Ug7bxhzSV0g_LCudY48U">
    <mxGraphModel dx="1290" dy="541" grid="1" gridSize="10" guides="1" tooltips="1" connect="1" arrows="1" fold="1" page="1" pageScale="1" pageWidth="850" pageHeight="1100" math="0" shadow="0">
      <root>
        <mxCell id="0" />
        <mxCell id="1" parent="0" />
        <mxCell id="T7CK-i2BZKNS3L9fxrqy-24" style="edgeStyle=orthogonalEdgeStyle;rounded=1;orthogonalLoop=1;jettySize=auto;html=1;exitX=0.5;exitY=0.5;exitDx=0;exitDy=0;exitPerimeter=0;labelBackgroundColor=none;fontColor=default;entryX=0.949;entryY=0.25;entryDx=0;entryDy=0;entryPerimeter=0;" parent="1" source="T7CK-i2BZKNS3L9fxrqy-3" target="T7CK-i2BZKNS3L9fxrqy-10" edge="1">
          <mxGeometry relative="1" as="geometry">
            <mxPoint x="520" y="270" as="targetPoint" />
            <Array as="points">
              <mxPoint x="765" y="310" />
            </Array>
          </mxGeometry>
        </mxCell>
        <mxCell id="T7CK-i2BZKNS3L9fxrqy-3" value="Actor" style="shape=umlActor;verticalLabelPosition=bottom;verticalAlign=top;html=1;labelBackgroundColor=none;rounded=1;" parent="1" vertex="1">
          <mxGeometry x="750" y="240" width="30" height="60" as="geometry" />
        </mxCell>
        <mxCell id="T7CK-i2BZKNS3L9fxrqy-4" value="Actor" style="shape=umlActor;verticalLabelPosition=bottom;verticalAlign=top;html=1;labelBackgroundColor=none;rounded=1;" parent="1" vertex="1">
          <mxGeometry x="670" y="530" width="30" height="60" as="geometry" />
        </mxCell>
        <mxCell id="T7CK-i2BZKNS3L9fxrqy-19" style="edgeStyle=orthogonalEdgeStyle;rounded=1;orthogonalLoop=1;jettySize=auto;html=1;exitX=0.5;exitY=0.5;exitDx=0;exitDy=0;exitPerimeter=0;entryX=0;entryY=0.5;entryDx=0;entryDy=0;labelBackgroundColor=none;fontColor=default;" parent="1" source="T7CK-i2BZKNS3L9fxrqy-5" target="T7CK-i2BZKNS3L9fxrqy-10" edge="1">
          <mxGeometry relative="1" as="geometry" />
        </mxCell>
        <mxCell id="T7CK-i2BZKNS3L9fxrqy-5" value="Actor" style="shape=umlActor;verticalLabelPosition=bottom;verticalAlign=top;html=1;labelBackgroundColor=none;rounded=1;" parent="1" vertex="1">
          <mxGeometry x="100" y="290" width="30" height="60" as="geometry" />
        </mxCell>
        <mxCell id="T7CK-i2BZKNS3L9fxrqy-8" value="login" style="ellipse;whiteSpace=wrap;html=1;labelBackgroundColor=none;rounded=1;" parent="1" vertex="1">
          <mxGeometry x="380" y="250" width="90" height="40" as="geometry" />
        </mxCell>
        <mxCell id="T7CK-i2BZKNS3L9fxrqy-10" value="pendaftaran" style="ellipse;whiteSpace=wrap;html=1;labelBackgroundColor=none;rounded=1;" parent="1" vertex="1">
          <mxGeometry x="380" y="300" width="90" height="40" as="geometry" />
        </mxCell>
        <mxCell id="T7CK-i2BZKNS3L9fxrqy-11" value="daftar pasien poli" style="ellipse;whiteSpace=wrap;html=1;labelBackgroundColor=none;rounded=1;" parent="1" vertex="1">
          <mxGeometry x="360" y="360" width="130" height="50" as="geometry" />
        </mxCell>
        <mxCell id="T7CK-i2BZKNS3L9fxrqy-12" value="pemeriksaan&amp;nbsp;" style="ellipse;whiteSpace=wrap;html=1;labelBackgroundColor=none;rounded=1;" parent="1" vertex="1">
          <mxGeometry x="360" y="430" width="130" height="50" as="geometry" />
        </mxCell>
        <mxCell id="T7CK-i2BZKNS3L9fxrqy-13" value="resep obat" style="ellipse;whiteSpace=wrap;html=1;labelBackgroundColor=none;rounded=1;" parent="1" vertex="1">
          <mxGeometry x="360" y="500" width="130" height="50" as="geometry" />
        </mxCell>
        <mxCell id="T7CK-i2BZKNS3L9fxrqy-14" value="ambil obat" style="ellipse;whiteSpace=wrap;html=1;labelBackgroundColor=none;rounded=1;" parent="1" vertex="1">
          <mxGeometry x="360" y="640" width="130" height="50" as="geometry" />
        </mxCell>
        <mxCell id="T7CK-i2BZKNS3L9fxrqy-15" value="logout" style="ellipse;whiteSpace=wrap;html=1;labelBackgroundColor=none;rounded=1;" parent="1" vertex="1">
          <mxGeometry x="360" y="770" width="130" height="50" as="geometry" />
        </mxCell>
        <mxCell id="T7CK-i2BZKNS3L9fxrqy-16" value="pasien" style="text;html=1;align=center;verticalAlign=middle;resizable=0;points=[];autosize=1;strokeColor=none;fillColor=none;labelBackgroundColor=none;rounded=1;" parent="1" vertex="1">
          <mxGeometry x="85" y="360" width="60" height="30" as="geometry" />
        </mxCell>
        <mxCell id="T7CK-i2BZKNS3L9fxrqy-17" value="administrasi" style="text;html=1;align=center;verticalAlign=middle;resizable=0;points=[];autosize=1;strokeColor=none;fillColor=none;labelBackgroundColor=none;rounded=1;" parent="1" vertex="1">
          <mxGeometry x="720" y="310" width="90" height="30" as="geometry" />
        </mxCell>
        <mxCell id="T7CK-i2BZKNS3L9fxrqy-18" value="bagian poli" style="text;html=1;align=center;verticalAlign=middle;resizable=0;points=[];autosize=1;strokeColor=none;fillColor=none;labelBackgroundColor=none;rounded=1;" parent="1" vertex="1">
          <mxGeometry x="645" y="610" width="80" height="30" as="geometry" />
        </mxCell>
        <mxCell id="T7CK-i2BZKNS3L9fxrqy-21" value="" style="endArrow=classic;html=1;rounded=1;exitX=0.5;exitY=0.5;exitDx=0;exitDy=0;exitPerimeter=0;entryX=0;entryY=0.5;entryDx=0;entryDy=0;labelBackgroundColor=none;fontColor=default;" parent="1" source="T7CK-i2BZKNS3L9fxrqy-5" target="T7CK-i2BZKNS3L9fxrqy-12" edge="1">
          <mxGeometry width="50" height="50" relative="1" as="geometry">
            <mxPoint x="360" y="490" as="sourcePoint" />
            <mxPoint x="410" y="440" as="targetPoint" />
          </mxGeometry>
        </mxCell>
        <mxCell id="T7CK-i2BZKNS3L9fxrqy-22" value="" style="endArrow=classic;html=1;rounded=1;exitX=0.5;exitY=0.5;exitDx=0;exitDy=0;exitPerimeter=0;entryX=0;entryY=0.5;entryDx=0;entryDy=0;labelBackgroundColor=none;fontColor=default;" parent="1" source="T7CK-i2BZKNS3L9fxrqy-5" target="T7CK-i2BZKNS3L9fxrqy-13" edge="1">
          <mxGeometry width="50" height="50" relative="1" as="geometry">
            <mxPoint x="360" y="490" as="sourcePoint" />
            <mxPoint x="410" y="440" as="targetPoint" />
          </mxGeometry>
        </mxCell>
        <mxCell id="T7CK-i2BZKNS3L9fxrqy-23" value="" style="endArrow=classic;html=1;rounded=1;entryX=0;entryY=0.5;entryDx=0;entryDy=0;exitX=0.5;exitY=0.5;exitDx=0;exitDy=0;exitPerimeter=0;labelBackgroundColor=none;fontColor=default;" parent="1" source="T7CK-i2BZKNS3L9fxrqy-5" target="T7CK-i2BZKNS3L9fxrqy-14" edge="1">
          <mxGeometry width="50" height="50" relative="1" as="geometry">
            <mxPoint x="170" y="320" as="sourcePoint" />
            <mxPoint x="410" y="440" as="targetPoint" />
          </mxGeometry>
        </mxCell>
        <mxCell id="T7CK-i2BZKNS3L9fxrqy-26" value="" style="endArrow=classic;html=1;rounded=1;exitX=0.5;exitY=0.5;exitDx=0;exitDy=0;exitPerimeter=0;labelBackgroundColor=none;fontColor=default;" parent="1" source="T7CK-i2BZKNS3L9fxrqy-3" edge="1">
          <mxGeometry width="50" height="50" relative="1" as="geometry">
            <mxPoint x="360" y="490" as="sourcePoint" />
            <mxPoint x="490" y="390" as="targetPoint" />
          </mxGeometry>
        </mxCell>
        <mxCell id="T7CK-i2BZKNS3L9fxrqy-27" value="" style="endArrow=classic;html=1;rounded=1;exitX=0.5;exitY=0.5;exitDx=0;exitDy=0;exitPerimeter=0;entryX=1;entryY=0.5;entryDx=0;entryDy=0;labelBackgroundColor=none;fontColor=default;" parent="1" source="T7CK-i2BZKNS3L9fxrqy-3" target="T7CK-i2BZKNS3L9fxrqy-15" edge="1">
          <mxGeometry width="50" height="50" relative="1" as="geometry">
            <mxPoint x="360" y="490" as="sourcePoint" />
            <mxPoint x="410" y="440" as="targetPoint" />
          </mxGeometry>
        </mxCell>
        <mxCell id="T7CK-i2BZKNS3L9fxrqy-29" value="laporan obat" style="ellipse;whiteSpace=wrap;html=1;labelBackgroundColor=none;rounded=1;" parent="1" vertex="1">
          <mxGeometry x="360" y="710" width="130" height="50" as="geometry" />
        </mxCell>
        <mxCell id="T7CK-i2BZKNS3L9fxrqy-30" value="" style="endArrow=classic;html=1;rounded=1;exitX=0.5;exitY=0.5;exitDx=0;exitDy=0;exitPerimeter=0;entryX=1;entryY=0.5;entryDx=0;entryDy=0;labelBackgroundColor=none;fontColor=default;" parent="1" source="T7CK-i2BZKNS3L9fxrqy-4" target="T7CK-i2BZKNS3L9fxrqy-12" edge="1">
          <mxGeometry width="50" height="50" relative="1" as="geometry">
            <mxPoint x="360" y="490" as="sourcePoint" />
            <mxPoint x="410" y="440" as="targetPoint" />
          </mxGeometry>
        </mxCell>
        <mxCell id="T7CK-i2BZKNS3L9fxrqy-31" value="" style="endArrow=classic;html=1;rounded=1;exitX=0.5;exitY=0.5;exitDx=0;exitDy=0;exitPerimeter=0;entryX=1;entryY=0.5;entryDx=0;entryDy=0;labelBackgroundColor=none;fontColor=default;" parent="1" source="T7CK-i2BZKNS3L9fxrqy-4" target="T7CK-i2BZKNS3L9fxrqy-13" edge="1">
          <mxGeometry width="50" height="50" relative="1" as="geometry">
            <mxPoint x="360" y="490" as="sourcePoint" />
            <mxPoint x="410" y="440" as="targetPoint" />
          </mxGeometry>
        </mxCell>
        <mxCell id="T7CK-i2BZKNS3L9fxrqy-32" value="" style="endArrow=classic;html=1;rounded=1;exitX=0.5;exitY=0.5;exitDx=0;exitDy=0;exitPerimeter=0;entryX=1;entryY=0.5;entryDx=0;entryDy=0;labelBackgroundColor=none;fontColor=default;" parent="1" source="T7CK-i2BZKNS3L9fxrqy-4" target="T7CK-i2BZKNS3L9fxrqy-29" edge="1">
          <mxGeometry width="50" height="50" relative="1" as="geometry">
            <mxPoint x="640" y="550" as="sourcePoint" />
            <mxPoint x="410" y="440" as="targetPoint" />
          </mxGeometry>
        </mxCell>
        <mxCell id="NCwir-E3KfLoBIwldD1M-2" value="Pembayaran" style="ellipse;whiteSpace=wrap;html=1;labelBackgroundColor=none;rounded=1;" parent="1" vertex="1">
          <mxGeometry x="360" y="570" width="130" height="50" as="geometry" />
        </mxCell>
        <mxCell id="NCwir-E3KfLoBIwldD1M-3" value="" style="endArrow=classic;html=1;rounded=1;fontColor=default;entryX=0.04;entryY=0.3;entryDx=0;entryDy=0;entryPerimeter=0;labelBackgroundColor=none;" parent="1" source="T7CK-i2BZKNS3L9fxrqy-5" target="NCwir-E3KfLoBIwldD1M-2" edge="1">
          <mxGeometry width="50" height="50" relative="1" as="geometry">
            <mxPoint x="400" y="520" as="sourcePoint" />
            <mxPoint x="450" y="470" as="targetPoint" />
            <Array as="points" />
          </mxGeometry>
        </mxCell>
        <mxCell id="NCwir-E3KfLoBIwldD1M-6" value="" style="endArrow=classic;html=1;rounded=1;fontColor=default;entryX=0.994;entryY=0.348;entryDx=0;entryDy=0;entryPerimeter=0;labelBackgroundColor=none;" parent="1" target="NCwir-E3KfLoBIwldD1M-2" edge="1">
          <mxGeometry width="50" height="50" relative="1" as="geometry">
            <mxPoint x="750" y="290" as="sourcePoint" />
            <mxPoint x="680" y="390" as="targetPoint" />
          </mxGeometry>
        </mxCell>
        <mxCell id="iaS_7g8oUDnoarKOMsbf-1" value="" style="endArrow=classic;html=1;rounded=0;exitX=0.66;exitY=0.253;exitDx=0;exitDy=0;exitPerimeter=0;entryX=0.042;entryY=0.34;entryDx=0;entryDy=0;entryPerimeter=0;" edge="1" parent="1" source="T7CK-i2BZKNS3L9fxrqy-5" target="T7CK-i2BZKNS3L9fxrqy-8">
          <mxGeometry width="50" height="50" relative="1" as="geometry">
            <mxPoint x="120" y="320" as="sourcePoint" />
            <mxPoint x="170" y="270" as="targetPoint" />
            <Array as="points">
              <mxPoint x="140" y="300" />
            </Array>
          </mxGeometry>
        </mxCell>
        <mxCell id="iaS_7g8oUDnoarKOMsbf-2" value="" style="edgeStyle=none;orthogonalLoop=1;jettySize=auto;html=1;rounded=0;" edge="1" parent="1">
          <mxGeometry width="80" relative="1" as="geometry">
            <mxPoint x="710" y="480" as="sourcePoint" />
            <mxPoint x="790" y="480" as="targetPoint" />
            <Array as="points" />
          </mxGeometry>
        </mxCell>
      </root>
    </mxGraphModel>
  </diagram>
</mxfile>
